<svg viewBox="0 0 960 580" xmlns="http://www.w3.org/2000/svg" font-family="Inter,Segoe UI,sans-serif">
  <defs>
    <linearGradient id="bg2" x1="0" y1="0" x2="0" y2="1">
      <stop offset="0%" stop-color="#0D0D1A"/>
      <stop offset="100%" stop-color="#13132B"/>
    </linearGradient>
    <linearGradient id="purp2" x1="0" y1="0" x2="1" y2="0">
      <stop offset="0%" stop-color="#7C3AED"/>
      <stop offset="100%" stop-color="#6D28D9"/>
    </linearGradient>
    <linearGradient id="red2" x1="0" y1="0" x2="1" y2="0">
      <stop offset="0%" stop-color="#B91C1C"/>
      <stop offset="100%" stop-color="#EF4444"/>
    </linearGradient>
    <marker id="arr1" markerWidth="8" markerHeight="8" refX="6" refY="3" orient="auto">
      <path d="M0,0 L0,6 L8,3 z" fill="#7C3AED"/>
    </marker>
    <marker id="arr2" markerWidth="8" markerHeight="8" refX="6" refY="3" orient="auto">
      <path d="M0,0 L0,6 L8,3 z" fill="#EF4444"/>
    </marker>
    <marker id="arr3" markerWidth="8" markerHeight="8" refX="6" refY="3" orient="auto">
      <path d="M0,0 L0,6 L8,3 z" fill="#6B7280"/>
    </marker>
    <marker id="arr4" markerWidth="8" markerHeight="8" refX="6" refY="3" orient="auto">
      <path d="M0,0 L0,6 L8,3 z" fill="#10B981"/>
    </marker>
  </defs>

  <!-- Background -->
  <rect width="960" height="580" fill="url(#bg2)" rx="12"/>
  <rect width="960" height="580" fill="none" stroke="#2D2D3E" stroke-width="1" rx="12"/>

  <!-- Title -->
  <text x="480" y="34" text-anchor="middle" font-size="17" font-weight="800" fill="#A78BFA">Key Architectural &amp; UI Design Highlights</text>
  <text x="480" y="52" text-anchor="middle" font-size="11" fill="#6B7280">From ClaimLens Design Spec — Era 2 Baseline vs. Era 3 Co-Scientist Pattern</text>

  <!-- ── USER INPUT ── -->
  <rect x="330" y="66" width="300" height="42" rx="10" fill="#1A1A2E" stroke="#A78BFA" stroke-width="2"/>
  <text x="480" y="83" text-anchor="middle" font-size="12" font-weight="700" fill="#A78BFA">User Viral Headline / Claim Input</text>
  <text x="480" y="99" text-anchor="middle" font-size="10" fill="#9CA3AF">Sidebar preset or custom text entry</text>

  <!-- split lines -->
  <line x1="400" y1="108" x2="200" y2="140" stroke="#6B7280" stroke-width="1.5" marker-end="url(#arr3)"/>
  <line x1="560" y1="108" x2="760" y2="140" stroke="#6B7280" stroke-width="1.5" marker-end="url(#arr3)"/>

  <!-- ── APPROACH A BOX ── -->
  <rect x="30" y="138" width="340" height="32" rx="8" fill="url(#red2)"/>
  <text x="200" y="150" text-anchor="middle" font-size="10" font-weight="700" fill="white">APPROACH A: Standard SEO Search &amp; Summarize</text>
  <text x="200" y="163" text-anchor="middle" font-size="9" fill="#FCA5A5">Single Prompt / Era 2 Baseline</text>

  <line x1="200" y1="170" x2="200" y2="188" stroke="#EF4444" stroke-width="1.5" marker-end="url(#arr2)"/>

  <rect x="54" y="188" width="292" height="36" rx="7" fill="#1E1E32" stroke="#EF4444" stroke-width="1"/>
  <text x="200" y="202" text-anchor="middle" font-size="10" fill="#F87171">[ Top SEO Search Results ]</text>
  <text x="200" y="217" text-anchor="middle" font-size="9" fill="#9CA3AF">DuckDuckGo Web Top 10</text>

  <line x1="200" y1="224" x2="200" y2="242" stroke="#EF4444" stroke-width="1.5" marker-end="url(#arr2)"/>

  <rect x="54" y="242" width="292" height="36" rx="7" fill="#1E1E32" stroke="#EF4444" stroke-width="1"/>
  <text x="200" y="256" text-anchor="middle" font-size="10" fill="#F87171">[ Single LLM Prompt ]</text>
  <text x="200" y="271" text-anchor="middle" font-size="9" fill="#9CA3AF">Qwen3-235B on Nebius AI</text>

  <line x1="200" y1="278" x2="200" y2="296" stroke="#EF4444" stroke-width="1.5" marker-end="url(#arr2)"/>

  <rect x="54" y="296" width="292" height="48" rx="7" fill="#2D1515" stroke="#EF4444" stroke-width="1.5"/>
  <text x="200" y="315" text-anchor="middle" font-size="10" font-weight="700" fill="#F87171">⚠  Unverified Summary</text>
  <text x="200" y="330" text-anchor="middle" font-size="9" fill="#FCA5A5">Echoes SEO Rumors — "Fluent Prose Fraud"</text>
  <text x="200" y="340" text-anchor="middle" font-size="8" fill="#6B7280">Repeats unverified viral claims as facts</text>

  <!-- ── APPROACH B BOX ── -->
  <rect x="590" y="138" width="340" height="32" rx="8" fill="url(#purp2)"/>
  <text x="760" y="150" text-anchor="middle" font-size="10" font-weight="700" fill="white">APPROACH B: Multi-Agent Hoax Auditor</text>
  <text x="760" y="163" text-anchor="middle" font-size="9" fill="#DDD6FE">Co-Scientist Agentic Architecture</text>

  <line x1="760" y1="170" x2="760" y2="188" stroke="#7C3AED" stroke-width="1.5" marker-end="url(#arr1)"/>

  <!-- Supervisor box -->
  <rect x="638" y="188" width="244" height="36" rx="7" fill="#1E1E32" stroke="#7C3AED" stroke-width="1.5"/>
  <text x="760" y="202" text-anchor="middle" font-size="10" font-weight="700" fill="#A78BFA">[ Supervisor Orchestrator ]</text>
  <text x="760" y="217" text-anchor="middle" font-size="9" fill="#9CA3AF">Routes claim to 3 specialist agents</text>

  <!-- 3 agent boxes side-by-side -->
  <line x1="700" y1="224" x2="660" y2="246" stroke="#7C3AED" stroke-width="1" marker-end="url(#arr1)"/>
  <line x1="760" y1="224" x2="760" y2="246" stroke="#7C3AED" stroke-width="1" marker-end="url(#arr1)"/>
  <line x1="820" y1="224" x2="860" y2="246" stroke="#7C3AED" stroke-width="1" marker-end="url(#arr1)"/>

  <rect x="594" y="246" width="114" height="52" rx="7" fill="#1E1E32" stroke="#7C3AED" stroke-width="1"/>
  <text x="651" y="262" text-anchor="middle" font-size="9" font-weight="700" fill="#A78BFA">Grounder</text>
  <text x="651" y="275" text-anchor="middle" font-size="8" fill="#9CA3AF">Primary Source</text>
  <text x="651" y="287" text-anchor="middle" font-size="8" fill="#9CA3AF">Hunter</text>

  <rect x="703" y="246" width="114" height="52" rx="7" fill="#1E1E32" stroke="#7C3AED" stroke-width="1"/>
  <text x="760" y="262" text-anchor="middle" font-size="9" font-weight="700" fill="#A78BFA">Claim Extractor</text>
  <text x="760" y="275" text-anchor="middle" font-size="8" fill="#9CA3AF">Deconstructs</text>
  <text x="760" y="287" text-anchor="middle" font-size="8" fill="#9CA3AF">Headline</text>

  <rect x="812" y="246" width="114" height="52" rx="7" fill="#1E1E32" stroke="#7C3AED" stroke-width="1"/>
  <text x="869" y="262" text-anchor="middle" font-size="9" font-weight="700" fill="#A78BFA">Critique</text>
  <text x="869" y="275" text-anchor="middle" font-size="8" fill="#9CA3AF">Pairwise</text>
  <text x="869" y="287" text-anchor="middle" font-size="8" fill="#9CA3AF">Debate</text>

  <!-- merge lines down to verifier -->
  <line x1="651" y1="298" x2="720" y2="320" stroke="#7C3AED" stroke-width="1" marker-end="url(#arr1)"/>
  <line x1="760" y1="298" x2="760" y2="320" stroke="#7C3AED" stroke-width="1" marker-end="url(#arr1)"/>
  <line x1="869" y1="298" x2="800" y2="320" stroke="#7C3AED" stroke-width="1" marker-end="url(#arr1)"/>

  <rect x="638" y="320" width="244" height="44" rx="7" fill="#1E1E32" stroke="#A78BFA" stroke-width="1.5"/>
  <text x="760" y="337" text-anchor="middle" font-size="10" font-weight="700" fill="#A78BFA">[ Claim Verifier Agent ]</text>
  <text x="760" y="351" text-anchor="middle" font-size="9" fill="#9CA3AF">Conservative Rewriter · Assigns Verdict</text>

  <line x1="760" y1="364" x2="760" y2="382" stroke="#A78BFA" stroke-width="1.5" marker-end="url(#arr1)"/>

  <rect x="624" y="382" width="272" height="56" rx="8" fill="#1A0A2E" stroke="#A78BFA" stroke-width="2"/>
  <text x="760" y="401" text-anchor="middle" font-size="11" font-weight="800" fill="#A78BFA">[ Verified Truth Scorecard ]</text>
  <text x="760" y="417" text-anchor="middle" font-size="9" fill="#DDD6FE">With Evidence Citations &amp; Confidence Score</text>
  <text x="760" y="430" text-anchor="middle" font-size="9" fill="#9CA3AF">🟢 Verified · 🟡 Exaggerated · 🔴 Fabricated</text>

  <!-- ── SEO ECHO INDEX BOX (centre, below split) ── -->
  <rect x="340" y="188" width="240" height="80" rx="8" fill="#111120" stroke="#374151" stroke-width="1" stroke-dasharray="4,3"/>
  <text x="460" y="207" text-anchor="middle" font-size="10" font-weight="700" fill="#6B7280">📊 SEO Echo Chamber Index</text>
  <text x="460" y="223" text-anchor="middle" font-size="9" fill="#4B5563">% of results with no primary source link</text>
  <line x1="380" y1="238" x2="380" y2="253" stroke="#374151" stroke-width="1"/>
  <rect x="360" y="253" width="200" height="8" rx="4" fill="#1F2937"/>
  <rect x="360" y="253" width="150" height="8" rx="4" fill="#EF4444"/>
  <text x="460" y="275" text-anchor="middle" font-size="9" fill="#6B7280">75% SEO echo — hoax spreading</text>

  <!-- ── MONGODB (bottom centre) ── -->
  <rect x="340" y="470" width="280" height="82" rx="8" fill="#065F46" opacity="0.8"/>
  <text x="480" y="490" text-anchor="middle" font-size="11" font-weight="700" fill="white">🗄️ MongoDB Atlas Analytics Store</text>
  <text x="480" y="507" text-anchor="middle" font-size="9" fill="#A7F3D0">audit_scorecards · rumor_trends · agent_traces</text>
  <text x="480" y="522" text-anchor="middle" font-size="9" fill="#6EE7B7">Rumor velocity · Domain leaderboard · Trends</text>
  <text x="480" y="537" text-anchor="middle" font-size="9" fill="#34D399">→ Powers Tab 4: Audit History &amp; Analytics</text>

  <!-- save lines to MongoDB -->
  <line x1="200" y1="344" x2="200" y2="455" stroke="#10B981" stroke-width="1" stroke-dasharray="3,2"/>
  <line x1="200" y1="455" x2="340" y2="500" stroke="#10B981" stroke-width="1" stroke-dasharray="3,2" marker-end="url(#arr4)"/>
  <line x1="760" y1="438" x2="760" y2="455" stroke="#10B981" stroke-width="1" stroke-dasharray="3,2"/>
  <line x1="760" y1="455" x2="622" y2="500" stroke="#10B981" stroke-width="1" stroke-dasharray="3,2" marker-end="url(#arr4)"/>

  <!-- legend -->
  <rect x="30" y="470" width="200" height="82" rx="8" fill="#111120" stroke="#2D2D3E" stroke-width="1"/>
  <text x="130" y="488" text-anchor="middle" font-size="10" font-weight="700" fill="#6B7280">TECH STACK</text>
  <text x="46" y="504" font-size="9" fill="#9CA3AF">🤖 Nebius AI · Qwen3-235B / 30B</text>
  <text x="46" y="518" font-size="9" fill="#9CA3AF">🔍 DuckDuckGo Search (ddgs)</text>
  <text x="46" y="532" font-size="9" fill="#9CA3AF">📖 Wikipedia REST API</text>
  <text x="46" y="546" font-size="9" fill="#9CA3AF">💊 OpenFDA Drug Recall API</text>

  <rect x="730" y="470" width="200" height="82" rx="8" fill="#111120" stroke="#2D2D3E" stroke-width="1"/>
  <text x="830" y="488" text-anchor="middle" font-size="10" font-weight="700" fill="#6B7280">100% FREE APIS</text>
  <text x="746" y="504" font-size="9" fill="#34D399">✓ No Google Search key needed</text>
  <text x="746" y="518" font-size="9" fill="#34D399">✓ No PubMed key needed</text>
  <text x="746" y="532" font-size="9" fill="#34D399">✓ No FDA key needed</text>
  <text x="746" y="546" font-size="9" fill="#34D399">✓ Streamlit Community Cloud deploy</text>
</svg>
